<svg width="129" height="128" viewBox="0 0 129 128" fill="none" xmlns="http://www.w3.org/2000/svg">
<path d="M52.7793 16C50.2796 16 48.1153 17.7361 47.573 20.1763L44.9453 32H84.0564L81.4291 20.1764C80.8869 17.7362 78.7226 16 76.2228 16H68.2186L68.3802 26.6667H60.6223L60.784 16H52.7793Z" fill="white"/>
<path fill-rule="evenodd" clip-rule="evenodd" d="M28.6087 105.51L39.019 58.6667H89.9819L100.391 105.51C101.131 108.841 98.5964 112 95.1844 112H69.6728L69.4304 96H59.5718L59.3293 112H33.815C30.403 112 27.8685 108.84 28.6087 105.51ZM59.9758 69.3333H69.0265L69.2689 85.3333H59.7334L59.9758 69.3333Z" fill="white"/>
<path d="M27.167 37.3333H101.834V53.3333H27.167V37.3333Z" fill="white"/>
<path d="M21.8337 42.6667H11.167V90.6667H27.167V69.3333H21.8337V42.6667Z" fill="white"/>
<path d="M101.834 69.3333H107.167V42.6667H117.834V90.6667H101.834V69.3333Z" fill="white"/>
</svg>
