<svg width="128" height="128" viewBox="0 0 128 128" fill="none" xmlns="http://www.w3.org/2000/svg">
<path fill-rule="evenodd" clip-rule="evenodd" d="M21.3333 37.3333C21.3333 25.5513 30.8846 16 42.6667 16H85.3333C97.1154 16 106.667 25.5513 106.667 37.3333V42.6664H112V63.9997H106.667V104C106.667 108.418 103.085 112 98.6667 112H93.3333C88.9151 112 85.3333 108.418 85.3333 104V95.9997H42.6667V104C42.6667 108.418 39.0849 112 34.6667 112H29.3333C24.9151 112 21.3333 108.418 21.3333 104V63.9997H16V42.6664H21.3333V37.3333ZM32 58.6664H96V37.3333C96 31.4423 91.2244 26.6667 85.3333 26.6667H74.6667V32C74.6667 34.9455 72.2789 37.3333 69.3333 37.3333H58.6667C55.7211 37.3333 53.3333 34.9455 53.3333 32V26.6667H42.6667C36.7756 26.6667 32 31.4423 32 37.3333V58.6664ZM32 74.6664C32 71.7209 34.3878 69.333 37.3333 69.333H48C50.9455 69.333 53.3333 71.7209 53.3333 74.6664C53.3333 77.6119 50.9455 79.9997 48 79.9997H37.3333C34.3878 79.9997 32 77.6119 32 74.6664ZM80 69.333C77.0545 69.333 74.6667 71.7209 74.6667 74.6664C74.6667 77.6119 77.0545 79.9997 80 79.9997H90.6667C93.6122 79.9997 96 77.6119 96 74.6664C96 71.7209 93.6122 69.333 90.6667 69.333H80Z" fill="white"/>
</svg>
