<svg width="65" height="65" viewBox="0 0 65 65" fill="none" xmlns="http://www.w3.org/2000/svg">
<path d="M27.306 11.8474C28.8641 12.6788 33.2185 14.3911 40.369 12.5985C46.2321 11.1287 50.2152 11.0727 52.3185 11.2217C53.3647 11.2958 54.0833 12.1903 54.0833 13.2421V29.1451C54.0833 30.6362 52.6629 31.8287 51.1761 31.7992C48.9047 31.7541 45.3024 31.9899 40.369 33.2266C31.2262 35.5186 27.4167 32.4993 27.4167 32.4993V55.2382C29.469 55.5986 31.7211 55.7976 34.0836 55.7976C43.6567 55.7976 51.4173 52.53 51.4173 48.4992C51.4173 44.4684 43.6567 41.2008 34.0836 41.2008C33.9136 41.2008 33.5528 41.1988 33.1461 41.1971C32.2001 41.193 31.4167 40.4175 31.4167 39.4714C31.4167 38.5606 32.1446 37.8273 33.0554 37.8298C33.4986 37.8311 33.9013 37.8327 34.0833 37.8327C48.0746 37.8327 59.4167 42.6083 59.4167 48.4994C59.4167 54.3904 48.0746 59.166 34.0833 59.166C20.0921 59.166 8.75 54.3904 8.75 48.4994C8.75 46.2491 10.405 44.1615 13.2304 42.4407C14.8376 41.4619 16.75 42.7596 16.75 44.6414V48.4992C16.7501 50.5689 18.7963 52.4375 22.0833 53.7657V13.8327C22.0833 12.5668 23.1067 11.4525 24.369 11.4525H25.8928C26.3874 11.4525 26.8694 11.6145 27.306 11.8474Z" fill="white"/>
</svg>
