<svg width="129" height="128" viewBox="0 0 129 128" fill="none" xmlns="http://www.w3.org/2000/svg">
<path fill-rule="evenodd" clip-rule="evenodd" d="M67.945 20.002L52.2676 40.3903L65.4737 57.6072L58.0597 63.0441C50.2287 52.8499 37.208 35.8596 37.208 35.8596L12.8058 67.6728C20.914 66.5871 27.0342 67.0208 32.8871 68.4054C36.4544 69.2493 39.8357 70.4265 43.3213 71.6859C43.8448 71.8751 44.3713 72.0663 44.903 72.2595L44.9043 72.26L44.9046 72.26L44.9048 72.2601C47.9552 73.3682 51.1732 74.5371 54.9289 75.7108C65.6693 79.0672 75.756 80.8551 84.3091 80.0125C92.6845 79.1874 99.4528 75.8757 104.217 68.9679L104.826 68.0842L67.945 20.002ZM4.87195 73.8056L3.73926 77.77C17.8979 74.9383 25.8266 76.071 43.9496 86.2652C71.6476 101.845 111.345 103.256 125.503 80.0354C123.834 78.6234 120.515 76.5291 118.707 75.5046C113.044 82.8671 103.416 87.9643 94.3542 89.6633V88.5306C103.982 85.6988 111.911 78.3364 114.743 73.2393C111.911 71.5402 109.079 70.4076 109.079 70.4076C97.7524 87.3224 75.5478 86.9011 53.5774 80.0354C50.7109 79.1396 48.0853 78.258 45.6086 77.4264C32.427 73.0004 23.4658 69.9915 4.87195 73.8056Z" fill="white"/>
</svg>
