<svg width="24" height="24" viewBox="0 0 24 24" fill="none" xmlns="http://www.w3.org/2000/svg">
<path d="M11.8336 5.05873C11.9413 5.02073 12.0587 5.02073 12.1664 5.05873L20.1063 7.86104C20.3342 7.9415 20.5871 7.84733 20.7069 7.63736L20.9799 7.15903C21.1266 6.902 21.0191 6.57451 20.7487 6.45432L12.8631 2.94963C12.3137 2.70543 11.6865 2.70543 11.137 2.94963L3.25142 6.45433C2.981 6.57452 2.87355 6.90199 3.02021 7.15902L3.29307 7.6373C3.41288 7.8473 3.66578 7.94149 3.89377 7.86102L11.8336 5.05873Z" fill="white"/>
<path fill-rule="evenodd" clip-rule="evenodd" d="M6.1875 11.7254C6.25991 11.4535 6.43768 11.2166 6.68609 11.0612L6.88987 10.9336C7.09188 10.8072 7.2483 10.6262 7.33846 10.4145L8.19333 8.40777C8.32442 8.10005 8.59196 7.85767 8.93568 7.78226C10.651 7.40592 13.349 7.4059 15.0644 7.78226C15.4081 7.85767 15.6756 8.10004 15.8067 8.40776L16.6616 10.4145C16.7518 10.6262 16.9082 10.8072 17.1102 10.9336L17.314 11.0612C17.5624 11.2166 17.7401 11.4535 17.8126 11.7254L17.9642 12.295C17.988 12.3844 18 12.4761 18 12.5683V14.0265C18 14.0886 17.9946 14.1505 17.9837 14.2117L17.8671 14.8684C17.8145 15.1648 17.6416 15.418 17.4 15.587V16.9366C17.4 17.2478 17.1314 17.5 16.8 17.5H16.2C15.8687 17.5 15.6 17.2478 15.6 16.9366V15.8099L14.4 15.8099L13.8 15.5282H10.2L9.60003 15.8099L8.40003 15.8099V16.9366C8.40003 17.2478 8.1314 17.5 7.80003 17.5H7.20003C6.86866 17.5 6.60003 17.2478 6.60003 16.9366V15.587C6.35846 15.418 6.18552 15.1648 6.13291 14.8684L6.01636 14.2117C6.00549 14.1505 6.00003 14.0886 6.00003 14.0265V12.5683C6.00003 12.4761 6.01206 12.3844 6.03586 12.295L6.1875 11.7254ZM6.95984 12.5429C7.09537 12.161 7.52115 11.9416 7.93698 12.0392L9.08964 12.3099C9.38961 12.3804 9.60003 12.6334 9.60003 12.9238C9.60003 13.2732 9.29832 13.5565 8.92614 13.5565H7.73797C7.17814 13.5565 6.78282 13.0416 6.95984 12.5429ZM16.0631 12.0392C16.4789 11.9416 16.9047 12.161 17.0402 12.5429C17.2172 13.0416 16.8219 13.5565 16.2621 13.5565H15.0739C14.7017 13.5565 14.4 13.2732 14.4 12.9238C14.4 12.6334 14.6105 12.3804 14.9104 12.3099L16.0631 12.0392ZM8.87096 8.80916C8.95016 8.61083 9.14117 8.47051 9.36559 8.44908C11.1607 8.27771 12.7633 8.27247 14.6339 8.44948C14.8586 8.47074 15.05 8.61113 15.1293 8.80966L15.9 10.7396C12.883 10.63 11.1861 10.5734 8.10003 10.7395L8.87096 8.80916Z" fill="white"/>
<path d="M4.38597 17.1209C4.46716 17.0837 4.4334 16.958 4.34548 16.9738C3.4925 17.1266 3.00003 17.3069 3.00003 17.5V20.5C3.00003 21.0523 7.02947 21.5 12 21.5C16.9706 21.5 21 21.0523 21 20.5V17.5C21 17.3069 20.5076 17.1266 19.6546 16.9738C19.5667 16.958 19.5329 17.0837 19.6141 17.1209C20 17.2979 20 17.372 20 17.5C20 18.0523 16.4183 18.5 12 18.5C7.58175 18.5 4.00003 18.0523 4.00003 17.5C4.00003 17.372 4.00003 17.2979 4.38597 17.1209Z" fill="white"/>
</svg>
