<svg width="65" height="65" viewBox="0 0 65 65" fill="none" xmlns="http://www.w3.org/2000/svg">
<path fill-rule="evenodd" clip-rule="evenodd" d="M19.4871 24.4993C15.4456 24.4993 11.4871 28.1527 11.4871 32.4993C11.4871 36.896 15.1808 40.4993 19.4871 40.4993C23.5528 40.4993 25.0578 38.1936 25.1009 38.1276L25.101 38.1274C25.1385 38.07 25.209 37.9627 25.301 37.8415L35.9255 23.8578C35.9269 23.8558 35.9284 23.8535 35.9302 23.8509C36.5402 22.9384 39.5021 19.1664 46.0847 19.1664C53.3849 19.1664 59.418 25.127 59.418 32.4997C59.418 36.2904 57.6638 39.6228 55.2141 41.9683C52.7805 44.2983 49.4762 45.833 46.0847 45.833C42.7562 45.833 40.2116 44.6346 38.537 43.4733C37.3268 42.6341 37.026 40.9727 37.8652 39.7624C38.7044 38.5522 40.3658 38.2514 41.5761 39.0906C42.5885 39.7926 44.0926 40.4997 46.0847 40.4997C47.898 40.4997 49.9271 39.6466 51.5256 38.116C53.108 36.601 54.0847 34.6 54.0847 32.4997C54.0847 28.0903 50.4571 24.4997 46.0847 24.4997C41.8985 24.4997 40.3834 26.7857 40.364 26.8149L40.3638 26.8152L40.3632 26.8162C40.3331 26.8612 40.2697 26.9559 40.1888 27.0625L29.5678 41.0416C29.5675 41.042 29.5673 41.0424 29.567 41.0427C28.9642 41.9662 26.014 45.8327 19.4871 45.8327C12.2787 45.8327 6.15381 39.8848 6.15381 32.4993C6.15381 25.064 12.6453 19.166 19.4871 19.166C23.0197 19.166 25.5974 20.3976 27.2566 21.6082C28.4464 22.4762 28.7071 24.1444 27.8391 25.3342C26.971 26.5239 25.3028 26.7847 24.1131 25.9166C23.2046 25.2537 21.7044 24.4993 19.4871 24.4993Z" fill="white"/>
</svg>
