<svg width="129" height="128" viewBox="0 0 129 128" fill="none" xmlns="http://www.w3.org/2000/svg">
<path d="M59.167 5.33398L43.167 16.0007V51.4233C33.3363 57.8569 27.167 66.4938 27.167 77.334C27.167 88.4699 33.2124 96.3505 43.167 101.753V117.334H59.167V107.707C62.5405 108.554 66.1082 109.26 69.8337 109.839V117.334H85.8337V111.527C90.1397 111.797 94.5656 111.945 99.0686 111.988C100.594 112.002 101.834 110.764 101.834 109.239C101.834 107.79 100.708 106.588 99.2634 106.474C94.599 106.105 90.1116 105.648 85.8337 105.093V62.4578C79.755 63.1691 74.4506 63.9299 69.8337 64.7554V102.303C65.9854 101.421 62.4172 100.414 59.167 99.2696V67.0999C50.41 69.4996 45.5401 72.3967 43.167 76.0367V90.0395C39.7111 86.4889 37.8337 82.2869 37.8337 77.334C37.8337 61.5271 68.4286 53.3689 97.2337 52.8594C103.407 52.7503 107.449 45.7569 104.024 40.6195C102.656 38.5669 100.351 37.3215 97.8849 37.3838C93.8364 37.4859 89.8034 37.7452 85.8337 38.1617V26.6673L69.8337 16.0007V40.7962C66.1328 41.6476 62.5614 42.656 59.167 43.8215V5.33398Z" fill="white"/>
</svg>
