<svg width="65" height="64" viewBox="0 0 65 64" fill="none" xmlns="http://www.w3.org/2000/svg">
<path d="M23.7942 2.65625L49.9332 2.66311C55.9222 2.66853 60.8003 5.98595 60.8003 13.3281V50.6615C60.8003 56.5798 56.0491 61.3281 50.1336 61.3281H23.467C21.2578 61.3281 19.467 59.5373 19.467 57.3281C19.467 55.119 21.2578 53.3281 23.467 53.3281H50.1336C51.6918 53.3281 52.8003 52.2224 52.8003 50.6615V13.3281C52.8003 11.7602 51.5226 10.6651 49.9297 10.6631L23.7922 10.6563C21.5831 10.6557 19.7926 8.86439 19.7932 6.65525C19.7937 4.44611 21.5851 2.6557 23.7942 2.65625Z" fill="white"/>
<path d="M26.2954 18.4997C24.7333 16.9376 22.2006 16.9376 20.6385 18.4997L9.97186 29.1664C8.40977 30.7285 8.40977 33.2612 9.97186 34.8233L20.6385 45.4899C22.2006 47.052 24.7333 47.052 26.2954 45.4899C27.8575 43.9278 27.8575 41.3952 26.2954 39.8331L22.4571 35.9948H40.8003C43.0094 35.9948 44.8003 34.204 44.8003 31.9948C44.8003 29.7857 43.0094 27.9948 40.8003 27.9948H22.4571L26.2954 24.1566C27.8575 22.5945 27.8575 20.0618 26.2954 18.4997Z" fill="white"/>
</svg>
