<svg width="129" height="128" viewBox="0 0 129 128" fill="none" xmlns="http://www.w3.org/2000/svg">
<path d="M42.8672 36.6357C49.1664 31.5887 57.0004 28.8445 65.072 28.8573C73.471 28.8573 81.1901 31.7663 87.2769 36.6357L93.0198 30.8928L98.6085 36.4816L92.8656 42.2245C97.0461 47.4581 99.664 53.7658 100.418 60.4215C101.172 67.0773 100.031 73.8107 97.1275 79.8468C94.2236 85.8829 89.6744 90.9765 84.0035 94.5414C78.3326 98.1062 71.7703 99.9975 65.072 99.9975C58.3737 99.9975 51.8115 98.1062 46.1406 94.5414C40.4696 90.9765 35.9205 85.8829 33.0166 79.8468C30.1127 73.8107 28.9721 67.0773 29.7261 60.4215C30.48 53.7658 33.0979 47.4581 37.2784 42.2245L31.5355 36.4856L37.1243 30.8968L42.8672 36.6397V36.6357ZM69.0245 60.4769V42.6711L49.2622 68.3818H61.1196V86.1678L80.8818 60.4769H69.0245ZM49.2622 17H80.8818V24.9049H49.2622V17Z" fill="white"/>
</svg>
