<svg width="24" height="24" viewBox="0 0 24 24" fill="none" xmlns="http://www.w3.org/2000/svg">
<path fill-rule="evenodd" clip-rule="evenodd" d="M3 4C3 3.44772 3.44772 3 4 3H14C14.5523 3 15 3.44772 15 4L15 20C15 20.5523 14.5523 21 14 21H4C3.44771 21 3 20.5523 3 20V4ZM8.81839 8.39373C8.88987 8.23876 9.11013 8.23876 9.18161 8.39373L10.0817 10.345C10.1108 10.4082 10.1706 10.4517 10.2397 10.4599L12.3736 10.7129C12.5431 10.733 12.6112 10.9425 12.4859 11.0583L10.9082 12.5173C10.8572 12.5645 10.8343 12.6349 10.8478 12.7031L11.2666 14.8108C11.2999 14.9782 11.1217 15.1076 10.9728 15.0243L9.09769 13.9747C9.03699 13.9407 8.96301 13.9407 8.90231 13.9747L7.02722 15.0243C6.87829 15.1076 6.7001 14.9782 6.73336 14.8108L7.15215 12.7031C7.16571 12.6349 7.14285 12.5645 7.09178 12.5173L5.51412 11.0583C5.38881 10.9425 5.45688 10.733 5.62636 10.7129L7.76028 10.4599C7.82935 10.4517 7.88921 10.4082 7.91834 10.345L8.81839 8.39373ZM22 4C22.5523 4 23 4.44772 23 5V10C23 10.5523 22.5523 11 22 11H18C17.4477 11 17 10.5523 17 10V5C17 4.44772 17.4477 4 18 4L22 4ZM22 13C22.5523 13 23 13.4477 23 14V19C23 19.5523 22.5523 20 22 20H18C17.4477 20 17 19.5523 17 19V14C17 13.4477 17.4477 13 18 13H22Z" fill="white"/>
</svg>
