<?xml version="1.0" encoding="UTF-8" standalone="no"?>
<svg
   xmlns:dc="http://purl.org/dc/elements/1.1/"
   xmlns:cc="http://creativecommons.org/ns#"
   xmlns:rdf="http://www.w3.org/1999/02/22-rdf-syntax-ns#"
   xmlns:svg="http://www.w3.org/2000/svg"
   xmlns="http://www.w3.org/2000/svg"
   xmlns:sodipodi="http://sodipodi.sourceforge.net/DTD/sodipodi-0.dtd"
   xmlns:inkscape="http://www.inkscape.org/namespaces/inkscape"
   width="24"
   height="24"
   viewBox="0 0 24 24"
   fill="none"
   version="1.1"
   id="svg4505"
   sodipodi:docname="icon-exit.svg"
   inkscape:version="0.92.1 r15371">
  <metadata
     id="metadata4511">
    <rdf:RDF>
      <cc:Work
         rdf:about="">
        <dc:format>image/svg+xml</dc:format>
        <dc:type
           rdf:resource="http://purl.org/dc/dcmitype/StillImage" />
      </cc:Work>
    </rdf:RDF>
  </metadata>
  <defs
     id="defs4509" />
  <sodipodi:namedview
     pagecolor="#ffffff"
     bordercolor="#666666"
     borderopacity="1"
     objecttolerance="10"
     gridtolerance="10"
     guidetolerance="10"
     inkscape:pageopacity="0"
     inkscape:pageshadow="2"
     inkscape:window-width="1724"
     inkscape:window-height="901"
     id="namedview4507"
     showgrid="false"
     inkscape:zoom="9.8333333"
     inkscape:cx="12"
     inkscape:cy="12"
     inkscape:window-x="0"
     inkscape:window-y="0"
     inkscape:window-maximized="0"
     inkscape:current-layer="svg4505" />
  <path
     d="M 7.4362343,0.998047 17.238374,1.00062 c 2.24587,0.00203 4.07516,1.24607 4.07516,3.99938 v 14 c 0,2.2194 -1.7817,4 -4,4 H 7.3135343 c -0.8284,0 -1.5,-0.6716 -1.5,-1.5 0,-0.8284 0.6716,-1.5 1.5,-1.5 h 9.9999997 c 0.58431,0 1,-0.4146 1,-1 V 5 c 0,-0.58798 -0.47915,-0.99862 -1.07647,-0.99938 L 7.4355343,3.99805 c -0.8285,-2.1e-4 -1.4999,-0.67195 -1.4997,-1.50038 2e-4,-0.82842 0.672,-1.49983 1.5004,-1.499623 z"
     id="path4501"
     inkscape:connector-curvature="0"
     style="fill:#ffffff" />
  <path
     d="m 8.3742343,6.93935 c -0.5858,-0.58578 -1.5356,-0.58578 -2.1214,0 l -4,4.00005 c -0.5857,0.5857 -0.5857,1.5355 0,2.1213 l 4,4 c 0.5858,0.5858 1.5356,0.5858 2.1214,0 0.5857,-0.5858 0.5857,-1.5356 0,-2.1213 L 6.9348343,13.5 h 6.8786997 c 0.82843,0 1.5,-0.6716 1.5,-1.5 0,-0.8284 -0.67157,-1.5 -1.5,-1.5 H 6.9348343 l 1.4394,-1.43932 c 0.5857,-0.58579 0.5857,-1.53554 0,-2.12133 z"
     id="path4503"
     inkscape:connector-curvature="0"
     style="fill:#ffffff" />
</svg>
