<svg width="24" height="24" viewBox="0 0 24 24" fill="none" xmlns="http://www.w3.org/2000/svg">
<path d="M9.95848 4.25552C10.5428 4.56729 12.1757 5.2094 14.8571 4.53719C17.0558 3.98602 18.5495 3.96502 19.3382 4.02088C19.7305 4.04867 20 4.38412 20 4.77852V10.7421C20 11.3013 19.4673 11.7485 18.9098 11.7374C18.058 11.7205 16.7071 11.809 14.8571 12.2727C11.4286 13.1322 9.99999 12 9.99999 12V20.5271C10.7696 20.6622 11.6142 20.7368 12.5001 20.7368C16.09 20.7368 19.0002 19.5115 19.0002 18C19.0002 16.4884 16.09 15.2631 12.5001 15.2631C12.4364 15.2631 12.301 15.2623 12.1486 15.2616C11.7938 15.2601 11.5 14.9693 11.5 14.6145C11.5 14.273 11.773 13.998 12.1145 13.9989C12.2807 13.9994 12.4317 14 12.5 14C17.7467 14 22 15.7909 22 18C22 20.2091 17.7467 22 12.5 22C7.25329 22 3 20.2091 3 18C3 17.1561 3.62061 16.3733 4.68014 15.728C5.28285 15.3609 6 15.8476 6 16.5533V18C6.00003 18.7761 6.76735 19.4768 8 19.9749V5C8 4.52531 8.38375 4.10744 8.85714 4.10744H9.42857C9.61403 4.10744 9.79476 4.16816 9.95848 4.25552Z" fill="#FF6600"/>
</svg>
