<svg width="24" height="24" viewBox="0 0 24 24" fill="none" xmlns="http://www.w3.org/2000/svg">
<path fill-rule="evenodd" clip-rule="evenodd" d="M5 2H19C20.1 2 21 2.9 21 4V18.2026C21 19.2787 20.3114 20.2295 19.2906 20.5698L12.1581 22.9473C12.0555 22.9815 11.9445 22.9815 11.8419 22.9473L4.70943 20.5698C3.68858 20.2295 3 19.2797 3 18.2036V4C3 3.46957 3.21071 2.96086 3.58579 2.58579C3.96086 2.21071 4.46957 2 5 2ZM13.0179 14.3729H10.9286V13.8702C10.9286 11.9846 11.869 11.1976 12.6936 10.5074C13.3374 9.96847 13.9107 9.48865 13.9107 8.59116C13.9107 7.67541 13.2857 6.99309 12.1607 6.99309C10.8393 6.99309 10.0893 7.83702 10.0893 9.27348H8C8 6.56215 9.71429 5 12.1607 5C14.6607 5 16 6.56216 16 8.59116C16 10.144 15.1807 10.8534 14.401 11.5285C13.6931 12.1414 13.0179 12.7261 13.0179 13.8881V14.3729ZM13.4107 16.5994C13.4107 17.3895 12.7857 18 11.9821 18C11.1607 18 10.5536 17.3895 10.5536 16.5994C10.5536 15.8273 11.1607 15.1989 11.9821 15.1989C12.7857 15.1989 13.4107 15.8273 13.4107 16.5994Z" fill="#fff"/>
</svg>
