<svg width="24" height="24" viewBox="0 0 24 24" fill="none" xmlns="http://www.w3.org/2000/svg">
<path fill-rule="evenodd" clip-rule="evenodd" d="M2.31245 10.7501C2.43313 10.2674 2.72941 9.84702 3.14343 9.57104L3.48308 9.34464C3.81976 9.12021 4.08045 8.79894 4.23072 8.42326L5.65551 4.8613C5.87399 4.31509 6.31989 3.88487 6.89275 3.75102C9.75168 3.08302 14.2484 3.08297 17.1073 3.75101C17.6801 3.88486 18.126 4.31508 18.3445 4.86128L19.7693 8.42326C19.9195 8.79894 20.1802 9.12021 20.5169 9.34464L20.8566 9.57104C21.2706 9.84702 21.5669 10.2674 21.6875 10.7501L21.9403 11.7611C21.9799 11.9197 22 12.0826 22 12.2462V14.8345C22 14.9447 21.9909 15.0547 21.9728 15.1633L21.7785 16.3289C21.6908 16.855 21.4026 17.3045 21 17.6044V20C21 20.5523 20.5523 21 20 21H19C18.4477 21 18 20.5523 18 20V18.0001L16 18L15 17.5H9L8 18L6 18.0001V20C6 20.5523 5.55228 21 5 21H4C3.44772 21 3 20.5523 3 20V17.6044C2.59738 17.3045 2.30916 16.855 2.22147 16.3289L2.02721 15.1633C2.0091 15.0547 2 14.9447 2 14.8345V12.2462C2 12.0826 2.02005 11.9197 2.05972 11.7611L2.31245 10.7501ZM3.59968 12.2011C3.82556 11.5233 4.5352 11.1338 5.22825 11.3071L7.14935 11.7876C7.64929 11.9126 8 12.3618 8 12.8772C8 13.4975 7.49715 14.0003 6.87685 14.0003H4.89657C3.96352 14.0003 3.30466 13.0863 3.59968 12.2011ZM18.7717 11.3071C19.4648 11.1338 20.1744 11.5233 20.4003 12.2011C20.6953 13.0863 20.0365 14.0003 19.1034 14.0003H17.1232C16.5029 14.0003 16 13.4975 16 12.8772C16 12.3618 16.3507 11.9126 16.8506 11.7876L18.7717 11.3071ZM6.78488 5.57376C6.91689 5.22173 7.23523 4.97265 7.60927 4.93462C10.6012 4.63043 13.2722 4.62114 16.3898 4.93532C16.7642 4.97306 17.0832 5.22226 17.2154 5.57465L18.5 9.00029C13.4716 8.80583 10.6434 8.70521 5.5 9.0001L6.78488 5.57376Z" fill="#fff"/>
</svg>
