<svg width="24" height="24" viewBox="0 0 24 24" fill="none" xmlns="http://www.w3.org/2000/svg">
<path d="M11 1C9.34315 1 8 2.34315 8 4V5H5C3.89543 5 3 5.89543 3 7V10.5001H4.5C5.88071 10.5001 7 11.6194 7 13.0001C7 14.3808 5.88071 15.5001 4.5 15.5001H3V19C3 20.1046 3.89543 21 5 21H8.5V19.5001C8.5 18.1194 9.61929 17.0001 11 17.0001C12.3807 17.0001 13.5 18.1194 13.5 19.5001V21H17C18.1046 21 19 20.1046 19 19V16H20C21.6569 16 23 14.6569 23 13C23 11.3431 21.6569 10 20 10H19V7C19 5.89543 18.1046 5 17 5H14V4C14 2.34315 12.6569 1 11 1Z" fill="#fff"/>
</svg>
