<svg width="24" height="24" viewBox="0 0 24 24" fill="none" xmlns="http://www.w3.org/2000/svg">
<path d="M1.75 8C1.33579 8 1 8.33579 1 8.75V17.25C1 17.6642 1.33579 18 1.75 18C2.16421 18 2.5 17.6642 2.5 17.25V14H5V12H2.5V8.75C2.5 8.33579 2.16421 8 1.75 8Z" fill="#fff"/>
<path d="M21 9C20.4477 9 20 9.44772 20 10V11H17V15H20V16C20 16.5523 20.4477 17 21 17H22C22.5523 17 23 16.5523 23 16V10C23 9.44772 22.5523 9 22 9H21Z" fill="#fff"/>
<path d="M7 4C7 3.44772 7.44772 3 8 3H16C16.5523 3 17 3.44772 17 4C17 4.55228 16.5523 5 16 5H15V8H13V5H11V8H9V5H8C7.44772 5 7 4.55228 7 4Z" fill="#fff"/>
<path d="M6.74808 7.16795C6.91234 7.05844 7.10535 7 7.30278 7H15.5858C15.851 7 16.1054 7.10536 16.2929 7.29289L17.7071 8.70711C17.8946 8.89464 18 9.149 18 9.41421V16.8377C18 16.9452 17.9827 17.052 17.9487 17.1539L17.2279 19.3162C17.0918 19.7246 16.7097 20 16.2792 20H10.4142C10.149 20 9.89464 19.8946 9.70711 19.7071L7.29289 17.2929C7.10536 17.1054 6.851 17 6.58579 17H5C4.44772 17 4 16.5523 4 16V9.53518C4 9.20083 4.1671 8.8886 4.4453 8.70313L6.74808 7.16795Z" fill="#fff"/>
</svg>
