<svg width="24" height="24" viewBox="0 0 24 24" fill="none" xmlns="http://www.w3.org/2000/svg">
<path fill-rule="evenodd" clip-rule="evenodd" d="M8 13C8.46419 13 8.90991 13.0791 9.32442 13.2245C10.0406 11.3396 11.8639 10 14 10C16.7614 10 19 12.2386 19 15C20.6569 15 22 16.3431 22 18C22 19.6569 20.6569 21 19 21H8C5.79086 21 4 19.2091 4 17C4 14.7909 5.79086 13 8 13Z" fill="#fff"/>
<path d="M5.53076 5.11655C5.89861 5.4844 5.83232 6.09662 5.46447 6.46447C5.09662 6.83232 4.4844 6.89861 4.11654 6.53076L3.34315 5.75736C2.95262 5.36683 2.95262 4.73367 3.34315 4.34315C3.73367 3.95262 4.36683 3.95262 4.75736 4.34315L5.53076 5.11655Z" fill="#fff"/>
<path d="M8 4.09335C8 4.61357 8.47977 5 9 5C9.52023 5 10 4.61357 10 4.09335V3C10 2.44772 9.55228 2 9 2C8.44772 2 8 2.44771 8 3V4.09335Z" fill="#fff"/>
<path d="M12.4692 5.11655C12.1014 5.4844 12.1677 6.09662 12.5355 6.46447C12.9034 6.83232 13.5156 6.89861 13.8835 6.53076L14.6569 5.75736C15.0474 5.36684 15.0474 4.73367 14.6569 4.34315C14.2663 3.95262 13.6332 3.95262 13.2426 4.34315L12.4692 5.11655Z" fill="#fff"/>
<path d="M3.09335 11C3.61357 11 4 10.5202 4 10C4 9.47977 3.61357 9 3.09335 9H2C1.44772 9 1 9.44772 1 10C1 10.5523 1.44771 11 2 11H3.09335Z" fill="#fff"/>
<path fill-rule="evenodd" clip-rule="evenodd" d="M12.2642 8.73434C10.6919 9.16899 9.35972 10.1795 8.50746 11.5232C8.34016 11.5078 8.17088 11.5 8 11.5C7.30782 11.5 6.64551 11.6279 6.03539 11.8613C5.6962 11.3221 5.5 10.684 5.5 10C5.5 8.067 7.067 6.5 9 6.5C10.4867 6.5 11.7568 7.42691 12.2642 8.73434Z" fill="#fff"/>
</svg>
