<svg width="24" height="24" viewBox="0 0 24 24" fill="none" xmlns="http://www.w3.org/2000/svg">
<path fill-rule="evenodd" clip-rule="evenodd" d="M1 6C1 4.89543 1.89543 4 3 4H21C22.1046 4 23 4.89543 23 6V19C23 20.1046 22.1046 21 21 21H3C1.89543 21 1 20.1046 1 19V6ZM2.5 6H5V8H2.5V6ZM16 6H8V9H16V6ZM19 6H21.5V8H19V6ZM18.9151 13.5737C19.8185 13.4824 20.7267 13.6907 21.5 14.1665L20.4969 15.7967C20.0813 15.541 19.5932 15.4291 19.1077 15.4782C18.6223 15.5272 18.1664 15.7346 17.8105 16.0684C17.4545 16.4021 17.2182 16.8436 17.1379 17.3249C17.0577 17.8062 17.138 18.3005 17.3664 18.7317L16.5207 19.1797L15.6749 19.6278C15.2499 18.8255 15.1005 17.9057 15.2499 17.0101C15.3992 16.1145 15.8389 15.2929 16.5013 14.672C17.1636 14.051 18.0118 13.6651 18.9151 13.5737ZM2.5 14.1665C3.27326 13.6907 4.18154 13.4824 5.08486 13.5737C5.98818 13.6651 6.83638 14.051 7.49872 14.672C8.16107 15.2929 8.6008 16.1145 8.75013 17.0101C8.89945 17.9057 8.75009 18.8255 8.32507 19.6278L7.32016 19.0954C7.62838 18.5136 7.73669 17.8466 7.6284 17.1971C7.52011 16.5477 7.20123 15.9519 6.72092 15.5016C6.2406 15.0513 5.62551 14.7714 4.97045 14.7052C4.31538 14.6389 3.65672 14.79 3.09597 15.135L2.5 14.1665ZM4.83639 16.0436C4.47506 16.007 4.11174 16.0903 3.80244 16.2807L4.66986 17.6903L6.13247 18.4652C6.30248 18.1442 6.36222 17.7763 6.30249 17.4181C6.24276 17.0599 6.06687 16.7312 5.80193 16.4828C5.53699 16.2345 5.19771 16.0801 4.83639 16.0436Z" fill="#fff"/>
</svg>
