<svg width="24" height="24" viewBox="0 0 24 24" fill="none" xmlns="http://www.w3.org/2000/svg">
<path d="M9.80231 3C9.33361 3 8.9278 3.32553 8.82612 3.78306L8.33343 6H15.6668L15.1742 3.78308C15.0725 3.32554 14.6667 3 14.198 3H12.6972L12.7275 5H11.2729L11.3032 3H9.80231Z" fill="#fff"/>
<path fill-rule="evenodd" clip-rule="evenodd" d="M5.27032 19.7831L7.22224 11H16.7778L18.7295 19.7831C18.8682 20.4076 18.393 21 17.7533 21H12.9698L12.9244 18H11.0759L11.0304 21H6.2465C5.60675 21 5.13152 20.4076 5.27032 19.7831ZM11.1517 13H12.8487L12.8941 16H11.1062L11.1517 13Z" fill="#fff"/>
<path d="M5 7H19V10H5V7Z" fill="#fff"/>
<path d="M4 8H2V17H5V13H4V8Z" fill="#fff"/>
<path d="M19 13H20V8H22V17H19V13Z" fill="#fff"/>
</svg>
