<svg width="24" height="24" viewBox="0 0 24 24" fill="none" xmlns="http://www.w3.org/2000/svg">
<path d="M11.712 11.4874H10.2802V8.87268H11.7369C12.1312 8.87683 12.4425 9.00549 12.6708 9.25867C12.899 9.51184 13.0132 9.8501 13.0132 10.2734C13.0132 10.6594 12.9011 10.9583 12.677 11.1699C12.457 11.3816 12.1354 11.4874 11.712 11.4874Z" fill="#fff"/>
<path fill-rule="evenodd" clip-rule="evenodd" d="M3.27083 3.5C2.29283 3.5 1.5 4.29283 1.5 5.27083V7.18555H7.18604V8.87268H3.3075V10.9583H6.83118V12.6392H3.3075V16.25H1.5V18.7292C1.5 19.7072 2.29283 20.5 3.27083 20.5H20.9792C21.9572 20.5 22.75 19.7072 22.75 18.7292V15.3322C22.6393 15.4637 22.5107 15.5849 22.364 15.6959C21.7664 16.1483 20.9467 16.3745 19.9049 16.3745C19.1703 16.3745 18.5042 16.2438 17.9065 15.9823C17.313 15.7167 16.8647 15.3556 16.5618 14.899C16.2629 14.4384 16.1135 13.9092 16.1135 13.3115H18.3049C18.3049 13.7971 18.4294 14.1561 18.6785 14.3885C18.9316 14.6168 19.3405 14.731 19.9049 14.731C20.266 14.731 20.5503 14.6542 20.7578 14.5006C20.9695 14.3429 21.0753 14.1229 21.0753 13.8407C21.0753 13.5211 20.9612 13.2721 20.7329 13.0936C20.5088 12.9152 20.1124 12.7305 19.5438 12.5396C18.9752 12.3486 18.5104 12.1639 18.1493 11.9855C16.9747 11.4086 16.3875 10.6158 16.3875 9.6073C16.3875 9.1051 16.5327 8.66309 16.8232 8.28125C17.1179 7.89526 17.533 7.59644 18.0684 7.38477C18.6038 7.16895 19.2056 7.06104 19.8738 7.06104C20.5254 7.06104 21.1085 7.17725 21.6232 7.40967C22.0948 7.62097 22.4704 7.91461 22.75 8.29058V5.27083C22.75 4.29283 21.9572 3.5 20.9792 3.5H3.27083ZM10.2802 16.25V13.1746H11.6747C12.7787 13.1746 13.6461 12.911 14.277 12.3839C14.912 11.8527 15.2295 11.145 15.2295 10.261C15.2295 9.66333 15.0822 9.13 14.7875 8.66101C14.4969 8.18787 14.084 7.82471 13.5486 7.57153C13.0173 7.31421 12.4052 7.18555 11.712 7.18555H8.09497V16.25H10.2802Z" fill="#fff"/>
<path d="M22.75 9.875H21.0815C21.0815 9.50562 20.9674 9.21924 20.7391 9.01587C20.515 8.8125 20.21 8.71082 19.824 8.71082C19.4338 8.71082 19.1246 8.79797 18.8964 8.97229C18.6722 9.14246 18.5602 9.36035 18.5602 9.62598C18.5602 9.8584 18.6847 10.0701 18.9337 10.261C19.1827 10.4478 19.6206 10.6428 20.2473 10.8462C20.874 11.0454 21.3887 11.2612 21.7913 11.4937C22.1934 11.7254 22.513 11.9931 22.75 12.2969V9.875Z" fill="#fff"/>
</svg>
