<svg width="24" height="24" viewBox="0 0 24 24" fill="none" xmlns="http://www.w3.org/2000/svg">
<path d="M18 14H22V12H18V10H19C19.5304 10 20.0391 9.78929 20.4142 9.41421C20.7893 9.03914 21 8.53043 21 8V6H19V8H4.99997V6H2.99997V8C2.99997 8.53043 3.21068 9.03914 3.58576 9.41421C3.96083 9.78929 4.46954 10 4.99997 10H5.99997V12H1.99997V14H5.99997V15C6.00198 15.3353 6.03208 15.6698 6.08997 16H4.99997C4.46954 16 3.96083 16.2107 3.58576 16.5858C3.21068 16.9609 2.99997 17.4696 2.99997 18V20H4.99997V18H6.80997C6.98041 18.2945 7.19651 18.795 7.39766 19.2987C7.78188 20.2609 8.68389 20.9305 9.71949 20.9616L9.96998 20.9691C10.5338 20.986 11 20.5336 11 19.9695V10H13V19.9695C13 20.5336 13.4662 20.986 14.03 20.9691L14.2804 20.9616C15.316 20.9305 16.2181 20.2609 16.6023 19.2987C16.8034 18.795 17.0195 18.2945 17.19 18H19V20H21V18C21 17.4696 20.7893 16.9609 20.4142 16.5858C20.0391 16.2107 19.5304 16 19 16H17.91C17.9679 15.6698 17.998 15.3353 18 15V14ZM12 2C10.9391 2 9.92169 2.42143 9.17154 3.17157C8.4214 3.92172 7.99997 4.93913 7.99997 6L8.99997 8H15L16 6C16 4.93913 15.5785 3.92172 14.8284 3.17157C14.0783 2.42143 13.0608 2 12 2Z" fill="#fff"/>
</svg>
