<svg width="24" height="24" viewBox="0 0 24 24" fill="none" xmlns="http://www.w3.org/2000/svg">
<path d="M7.00018 4.5C3.96257 4.5 1.50011 6.96251 1.50018 10.0001L1.50021 11.0001C1.50028 14.0376 3.96269 16.5 7.00021 16.5H11V18.4641C11 19.2339 11.8333 19.715 12.5 19.3301L18.5 15.866C19.1666 15.4811 19.1666 14.5189 18.5 14.134L12.5 10.6699C11.8333 10.285 11 10.7661 11 11.5359V13.5H7.00021C5.61952 13.5 4.50024 12.3807 4.50021 11.0001L4.50018 10.0001C4.50015 8.61932 5.61945 7.5 7.00018 7.5H15.7887C17.6731 7.5 18.797 9.60009 17.7518 11.168L20.2479 12.8321C22.6223 9.27052 20.0692 4.5 15.7887 4.5H7.00018Z" fill="#fff"/>
</svg>
