<svg width="24" height="24" viewBox="0 0 24 24" fill="none" xmlns="http://www.w3.org/2000/svg">
<path fill-rule="evenodd" clip-rule="evenodd" d="M20 4.99954H17L16.0857 4.08557C15.7107 3.71063 15.2021 3.5 14.6718 3.5H9.32825C8.79792 3.5 8.28931 3.71063 7.91425 4.08557L7 4.99954H4C2.8722 4.99954 2 5.9445 2 6.99954V16.9996C2 18.0546 2.8722 19.0008 4 19.0008L20 19.0007C21.1278 19.0007 22 18.0546 22 16.9996V6.99954C22 5.9445 21.1278 4.99954 20 4.99954ZM16 12.0003C16 14.2095 14.2091 16.0003 12 16.0003C9.79086 16.0003 8 14.2095 8 12.0003C8 9.7912 9.79086 8.00034 12 8.00034C14.2091 8.00034 16 9.7912 16 12.0003ZM17 9.00034C17.5523 9.00034 18 8.55262 18 8.00034C18 7.44805 17.5523 7.00034 17 7.00034C16.4477 7.00034 16 7.44805 16 8.00034C16 8.55262 16.4477 9.00034 17 9.00034Z" fill="#fff"/>
</svg>
